<svg xmlns="http://www.w3.org/2000/svg" viewBox="0 0 68 82.5" x="0px" y="0px"><path fill="#000000" d="M365,812 C365,813.104569 364.104569,814 363,814 L299,814 C297.895431,814 297,813.104569 297,812 C297,793.222319 312.222319,778 331,778 C349.777681,778 365,793.222319 365,812 Z M321,844 C319.895431,844 319,843.104569 319,842 C319,840.895431 319.895431,840 321,840 L341,840 C342.104569,840 343,840.895431 343,842 C343,843.104569 342.104569,844 341,844 L321,844 Z M306,834 C304.895431,834 304,833.104569 304,832 C304,830.895431 304.895431,830 306,830 L356,830 C357.104569,830 358,830.895431 358,832 C358,833.104569 357.104569,834 356,834 L306,834 Z M300,824 C298.895431,824 298,823.104569 298,822 C298,820.895431 298.895431,820 300,820 L362,820 C363.104569,820 364,820.895431 364,822 C364,823.104569 363.104569,824 362,824 L300,824 Z" transform="translate(-297 -778)"/><text x="0" y="81" fill="#000000" font-size="5px" font-weight="bold" font-family="'Helvetica Neue', Helvetica, Arial-Unicode, Arial, Sans-serif">Created by Andrejs Kirma</text><text x="0" y="86" fill="#000000" font-size="5px" font-weight="bold" font-family="'Helvetica Neue', Helvetica, Arial-Unicode, Arial, Sans-serif">from the Noun Project</text></svg>