<svg xmlns="http://www.w3.org/2000/svg" xmlns:xlink="http://www.w3.org/1999/xlink" version="1.1" x="0px" y="0px" viewBox="0 0 512 640" style="enable-background:new 0 0 512 512;" xml:space="preserve"><g><g><g><path d="M256.111,350.414c-52.122,0-94.525-42.305-94.525-94.303c0-52.121,42.404-94.524,94.525-94.524     c51.999,0,94.303,42.403,94.303,94.524C350.414,308.109,308.109,350.414,256.111,350.414z M256.111,171.035     c-46.912,0-85.076,38.165-85.076,85.076c0,46.79,38.165,84.855,85.076,84.855c46.79,0,84.855-38.065,84.855-84.855     C340.966,209.2,302.9,171.035,256.111,171.035z"/></g><g><path d="M256.111,135.867c-2.609,0-4.725-2.115-4.725-4.725V51.738c0-2.609,2.115-4.725,4.725-4.725     c2.61,0,4.724,2.115,4.724,4.725v79.405C260.835,133.752,258.721,135.867,256.111,135.867z"/></g><g><path d="M344.363,172.362c-1.209,0-2.419-0.461-3.341-1.384c-1.845-1.845-1.845-4.836,0-6.682l56.181-56.181     c1.843-1.844,4.837-1.844,6.68,0c1.846,1.845,1.846,4.836,0,6.682l-56.18,56.181     C346.781,171.901,345.572,172.362,344.363,172.362z"/></g><g><path d="M460.263,260.835h-79.404c-2.609,0-4.725-2.114-4.725-4.724c0-2.609,2.115-4.725,4.725-4.725h79.404     c2.609,0,4.725,2.115,4.725,4.725C464.987,258.721,462.872,260.835,460.263,260.835z"/></g><g><path d="M400.543,405.268c-1.209,0-2.419-0.462-3.34-1.385l-56.181-56.18c-1.845-1.845-1.845-4.836,0-6.681     c1.844-1.845,4.837-1.845,6.681,0l56.18,56.181c1.846,1.844,1.846,4.836,0,6.68C402.961,404.806,401.752,405.268,400.543,405.268     z"/></g><g><path d="M256.111,464.987c-2.609,0-4.725-2.115-4.725-4.725v-79.404c0-2.609,2.115-4.725,4.725-4.725     c2.61,0,4.724,2.115,4.724,4.725v79.404C260.835,462.872,258.721,464.987,256.111,464.987z"/></g><g><path d="M111.457,405.268c-1.209,0-2.418-0.462-3.341-1.385c-1.845-1.844-1.845-4.836,0-6.68l56.181-56.181     c1.846-1.845,4.837-1.845,6.682,0c1.845,1.845,1.845,4.836,0,6.681l-56.181,56.18     C113.875,404.806,112.666,405.268,111.457,405.268z"/></g><g><path d="M131.143,260.835H51.738c-2.609,0-4.725-2.114-4.725-4.724c0-2.609,2.115-4.725,4.725-4.725h79.405     c2.609,0,4.725,2.115,4.725,4.725C135.867,258.721,133.752,260.835,131.143,260.835z"/></g><g><path d="M167.638,172.362c-1.209,0-2.418-0.461-3.341-1.384l-56.181-56.181c-1.845-1.845-1.845-4.836,0-6.682     c1.846-1.844,4.836-1.844,6.682,0l56.181,56.181c1.845,1.845,1.845,4.837,0,6.682     C170.056,171.901,168.847,172.362,167.638,172.362z"/></g><g><path d="M288.406,140.071c-0.401,0-0.81-0.052-1.217-0.16c-2.521-0.67-4.022-3.258-3.352-5.78l10.174-38.265     c0.67-2.521,3.254-4.025,5.78-3.352c2.521,0.67,4.022,3.258,3.352,5.78l-10.174,38.265     C292.407,138.674,290.496,140.071,288.406,140.071z"/></g><g><path d="M318.479,152.678c-0.801,0-1.613-0.204-2.356-0.633c-2.26-1.304-3.035-4.193-1.731-6.453l19.907-34.505     c1.304-2.26,4.193-3.037,6.453-1.731c2.26,1.304,3.035,4.193,1.731,6.453l-19.907,34.505     C321.701,151.83,320.112,152.678,318.479,152.678z"/></g><g><path d="M364.053,198.241c-1.634,0-3.223-0.848-4.098-2.364c-1.304-2.26-0.528-5.149,1.731-6.453l34.505-19.906     c2.259-1.304,5.148-0.529,6.453,1.731s0.529,5.149-1.73,6.453l-34.505,19.906C365.665,198.038,364.854,198.241,364.053,198.241z"/></g><g><path d="M376.652,228.323c-2.09,0-4.001-1.396-4.563-3.512c-0.671-2.521,0.83-5.109,3.351-5.78l38.266-10.175     c2.524-0.671,5.109,0.83,5.779,3.352c0.671,2.521-0.83,5.109-3.351,5.779l-38.266,10.175     C377.463,228.271,377.054,228.323,376.652,228.323z"/></g><g><path d="M414.923,303.303c-0.401,0-0.811-0.051-1.217-0.159L375.44,292.97c-2.521-0.671-4.021-3.259-3.351-5.78     c0.67-2.521,3.254-4.021,5.779-3.352l38.266,10.174c2.521,0.671,4.021,3.259,3.351,5.78     C418.924,301.907,417.013,303.303,414.923,303.303z"/></g><g><path d="M398.548,343.116c-0.801,0-1.613-0.204-2.356-0.633l-34.505-19.907c-2.26-1.304-3.035-4.192-1.731-6.453     c1.305-2.26,4.192-3.036,6.454-1.731l34.505,19.907c2.26,1.304,3.035,4.193,1.73,6.453     C401.771,342.269,400.182,343.116,398.548,343.116z"/></g><g><path d="M338.396,403.278c-1.633,0-3.222-0.849-4.097-2.364l-19.907-34.505c-1.304-2.261-0.528-5.149,1.731-6.454     c2.259-1.305,5.149-0.528,6.453,1.731l19.907,34.505c1.304,2.261,0.528,5.149-1.731,6.453     C340.009,403.074,339.196,403.278,338.396,403.278z"/></g><g><path d="M298.575,419.646c-2.09,0-4.001-1.396-4.563-3.511l-10.174-38.266c-0.671-2.521,0.831-5.108,3.352-5.779     c2.524-0.67,5.11,0.83,5.78,3.351l10.174,38.266c0.671,2.521-0.83,5.109-3.352,5.779     C299.385,419.594,298.977,419.646,298.575,419.646z"/></g><g><path d="M213.425,419.646c-0.402,0-0.811-0.052-1.217-0.16c-2.522-0.67-4.022-3.258-3.352-5.779l10.175-38.266     c0.67-2.521,3.261-4.021,5.78-3.351c2.522,0.671,4.022,3.258,3.352,5.779l-10.175,38.266     C217.425,418.249,215.515,419.646,213.425,419.646z"/></g><g><path d="M173.605,403.278c-0.801,0-1.612-0.204-2.356-0.634c-2.26-1.304-3.035-4.192-1.731-6.453l19.906-34.505     c1.303-2.26,4.192-3.036,6.453-1.731c2.26,1.305,3.035,4.193,1.731,6.454l-19.906,34.505     C176.827,402.43,175.238,403.278,173.605,403.278z"/></g><g><path d="M113.452,343.116c-1.634,0-3.222-0.848-4.097-2.364c-1.304-2.26-0.529-5.149,1.731-6.453l34.505-19.907     c2.26-1.305,5.148-0.528,6.453,1.731c1.304,2.261,0.529,5.149-1.731,6.453l-34.505,19.907     C115.064,342.912,114.253,343.116,113.452,343.116z"/></g><g><path d="M97.077,303.303c-2.089,0-4-1.396-4.563-3.511c-0.67-2.521,0.83-5.109,3.352-5.78l38.265-10.174     c2.521-0.668,5.109,0.831,5.78,3.352c0.67,2.521-0.83,5.109-3.352,5.78l-38.265,10.174     C97.887,303.252,97.479,303.303,97.077,303.303z"/></g><g><path d="M135.348,228.323c-0.402,0-0.811-0.051-1.217-0.16l-38.265-10.175c-2.522-0.67-4.022-3.258-3.352-5.779     c0.671-2.522,3.263-4.021,5.78-3.352l38.265,10.175c2.522,0.67,4.022,3.258,3.352,5.78     C139.348,226.926,137.437,228.323,135.348,228.323z"/></g><g><path d="M147.948,198.241c-0.801,0-1.613-0.204-2.356-0.633l-34.505-19.906c-2.26-1.304-3.035-4.193-1.731-6.453     c1.303-2.26,4.193-3.036,6.453-1.731l34.505,19.906c2.26,1.304,3.035,4.193,1.731,6.453     C151.17,197.394,149.581,198.241,147.948,198.241z"/></g><g><path d="M193.521,152.678c-1.634,0-3.222-0.848-4.097-2.365l-19.906-34.505c-1.304-2.26-0.529-5.149,1.731-6.453     c2.26-1.305,5.149-0.529,6.453,1.731l19.906,34.505c1.304,2.26,0.529,5.149-1.731,6.453     C195.133,152.474,194.321,152.678,193.521,152.678z"/></g><g><path d="M223.594,140.071c-2.089,0-4-1.396-4.563-3.512l-10.175-38.265c-0.67-2.521,0.83-5.109,3.352-5.78     c2.521-0.669,5.109,0.83,5.779,3.352l10.175,38.265c0.67,2.521-0.83,5.109-3.352,5.78     C224.405,140.019,223.996,140.071,223.594,140.071z"/></g></g></g><text x="0" y="527" fill="#fcd47c" font-size="5px" font-weight="bold" font-family="'Helvetica Neue', Helvetica, Arial-Unicode, Arial, Sans-serif">Created by Flatart</text><text x="0" y="532" fill="#fcd47c" font-size="5px" font-weight="bold" font-family="'Helvetica Neue', Helvetica, Arial-Unicode, Arial, Sans-serif">from the Noun Project</text></svg>